<?xml version='1.0' encoding='utf-8'?>
<svg xmlns="http://www.w3.org/2000/svg" viewBox="0 0 24 24" width="256" height="256">
  <defs>
    <linearGradient id="batteryGradient" x1="0%" y1="0%" x2="0%" y2="100%">
      <stop offset="0%" style="stop-color:#4CAF50;stop-opacity:1" />
      <stop offset="100%" style="stop-color:#4CAF50;stop-opacity:0.6" />
    </linearGradient>
    <linearGradient id="bluetoothGradient" x1="0%" y1="0%" x2="100%" y2="100%">
      <stop offset="0%" style="stop-color:#03A9F4;stop-opacity:1" />
      <stop offset="100%" style="stop-color:#03A9F4;stop-opacity:0.7" />
    </linearGradient>
  </defs>
  <circle cx="12" cy="12" r="11" fill="#1E1E1E" opacity="0.1" />
  <rect x="5" y="7" width="12" height="10" rx="1.5" fill="none" stroke="url(#batteryGradient)" stroke-width="1.8" />
  <rect x="9" y="4" width="4" height="3" rx="0.5" fill="url(#batteryGradient)" />
  <rect x="7" y="9" width="2" height="6" rx="0.3" fill="#4CAF50" opacity="0.9" />
  <rect x="10" y="9" width="2" height="6" rx="0.3" fill="#4CAF50" opacity="0.7" />
  <rect x="13" y="9" width="2" height="6" rx="0.3" fill="#4CAF50" opacity="0.5" />
  <path d="M 11 18.5 L 15 14.5 L 11 11.5 L 15 8.5 L 11 4.5 M 11 11.5 L 7 8.5 M 11 11.5 L 7 14.5" fill="none" stroke="url(#bluetoothGradient)" stroke-width="1.5" stroke-linecap="round" stroke-linejoin="round" />
  <path d="M 18 10 Q 19 11.5 18 13" fill="none" stroke="#FF9800" stroke-width="1.2" stroke-linecap="round" opacity="0.7" />
  <path d="M 19.5 9 Q 21 11.5 19.5 14" fill="none" stroke="#FF9800" stroke-width="1.2" stroke-linecap="round" opacity="0.5" />
</svg>